<?xml version="1.0" encoding="UTF-8" standalone="no"?><!DOCTYPE svg PUBLIC "-//W3C//DTD SVG 1.1//EN" "http://www.w3.org/Graphics/SVG/1.1/DTD/svg11.dtd"><!-- Generated by graphviz version 2.40.1 (20161225.0304)
 --><!-- Title: G Pages: 1 --><svg xmlns="http://www.w3.org/2000/svg" xmlns:xlink="http://www.w3.org/1999/xlink" width="794pt" height="298pt" viewBox="0.00 0.00 794.00 298.40">
<g id="graph0" class="graph" transform="scale(1 1) rotate(0) translate(4 294.4)">
<title>G</title>
<polygon fill="#ffffff" stroke="transparent" points="-4,4 -4,-294.4 790,-294.4 790,4 -4,4"/>
<g id="clust1" class="cluster">
<title>cluster_editor_window</title>
<polygon fill="#d3d3d3" stroke="#d3d3d3" points="8,-8 8,-282.4 320,-282.4 320,-8 8,-8"/>
<text text-anchor="middle" x="164" y="-265.8" font-family="Times,serif" font-size="14.00" fill="#000000">editor window context</text>
</g>
<g id="clust2" class="cluster">
<title>cluster_0</title>
<polygon fill="#add8e6" stroke="#add8e6" points="16,-16 16,-249.6 312,-249.6 312,-16 16,-16"/>
<text text-anchor="middle" x="164" y="-233" font-family="Times,serif" font-size="14.00" fill="#000000">editor (app)</text>
</g>
<g id="clust3" class="cluster">
<title>cluster_sandboxed_iframe</title>
<polygon fill="#d3d3d3" stroke="#d3d3d3" points="458,-80 458,-282.4 778,-282.4 778,-80 458,-80"/>
<text text-anchor="middle" x="618" y="-265.8" font-family="Times,serif" font-size="14.00" fill="#000000">sandboxed iframe window context</text>
</g>
<g id="clust4" class="cluster">
<title>cluster_1</title>
<polygon fill="#add8e6" stroke="#add8e6" points="466,-172.8 466,-249.6 770,-249.6 770,-172.8 466,-172.8"/>
<text text-anchor="middle" x="618" y="-233" font-family="Times,serif" font-size="14.00" fill="#000000">sandbox (canvasframe)</text>
</g>
<g id="clust5" class="cluster">
<title>cluster_2</title>
<polygon fill="#fff8dc" stroke="#fff8dc" points="540,-88 540,-164.8 696,-164.8 696,-88 540,-88"/>
<text text-anchor="middle" x="618" y="-148.2" font-family="Times,serif" font-size="14.00" fill="#000000">legitsl-web-core</text>
</g>
<!-- [app&#45;message&#45;module] (&#39;harbor&#39;) -->
<g id="node1" class="node">
<title>[app-message-module] ('harbor')</title>
<ellipse fill="#ffffff" stroke="#ffffff" cx="164" cy="-198.8" rx="139.9888" ry="18"/>
<text text-anchor="middle" x="164" y="-194.6" font-family="Times,serif" font-size="14.00" fill="#000000">[app-message-module] ('harbor')</text>
</g>
<!-- [app&#45;internal&#45;events] -->
<g id="node2" class="node">
<title>[app-internal-events]</title>
<ellipse fill="#ffffff" stroke="#ffffff" cx="136" cy="-114" rx="92.0103" ry="18"/>
<text text-anchor="middle" x="136" y="-109.8" font-family="Times,serif" font-size="14.00" fill="#000000">[app-internal-events]</text>
</g>
<!-- [app&#45;message&#45;module] (&#39;harbor&#39;)&#45;&gt;[app&#45;internal&#45;events] -->
<g id="edge1" class="edge">
<title>[app-message-module] ('harbor')-&gt;[app-internal-events]</title>
<path fill="none" stroke="#000000" d="M158.0619,-180.8161C154.3379,-169.5375 149.4593,-154.7625 145.237,-141.9749"/>
<polygon fill="#000000" stroke="#000000" points="148.485,-140.6487 142.026,-132.2503 141.838,-142.8435 148.485,-140.6487"/>
</g>
<!-- postMessage -->
<g id="node6" class="node">
<title>postMessage</title>
<ellipse fill="none" stroke="#000000" cx="389" cy="-114" rx="60.8332" ry="18"/>
<text text-anchor="middle" x="389" y="-109.8" font-family="Times,serif" font-size="14.00" fill="#000000">postMessage</text>
</g>
<!-- [app&#45;message&#45;module] (&#39;harbor&#39;)&#45;&gt;postMessage -->
<g id="edge6" class="edge">
<title>[app-message-module] ('harbor')-&gt;postMessage</title>
<path fill="none" stroke="#000000" d="M247.0948,-184.2724C267.1451,-179.4227 288.1851,-173.0674 307,-164.8 323.5058,-157.5472 340.1415,-146.3421 354.2088,-136.299"/>
<polygon fill="#000000" stroke="#000000" points="356.5463,-138.9286 362.6116,-130.2417 352.4529,-133.2502 356.5463,-138.9286"/>
</g>
<!-- [app&#45;routes/stores/components] -->
<g id="node3" class="node">
<title>[app-routes/stores/components]</title>
<ellipse fill="#ffffff" stroke="#ffffff" cx="164" cy="-42" rx="132.5636" ry="18"/>
<text text-anchor="middle" x="164" y="-37.8" font-family="Times,serif" font-size="14.00" fill="#000000">[app-routes/stores/components]</text>
</g>
<!-- [app&#45;internal&#45;events]&#45;&gt;[app&#45;routes/stores/components] -->
<g id="edge2" class="edge">
<title>[app-internal-events]-&gt;[app-routes/stores/components]</title>
<path fill="none" stroke="#000000" d="M143.0656,-95.8314C146.126,-87.9617 149.7779,-78.5712 153.1682,-69.8533"/>
<polygon fill="#000000" stroke="#000000" points="156.4768,-71.0019 156.8393,-60.4133 149.9527,-68.4647 156.4768,-71.0019"/>
</g>
<!-- [app&#45;routes/stores/components]&#45;&gt;[app&#45;message&#45;module] (&#39;harbor&#39;) -->
<g id="edge3" class="edge">
<title>[app-routes/stores/components]-&gt;[app-message-module] ('harbor')</title>
<path fill="none" stroke="#000000" d="M214.2825,-58.8229C223.3281,-64.1618 231.589,-71.0832 237,-80 256.5522,-112.2205 257.2575,-133.0181 237,-164.8 234.2067,-169.1824 230.6855,-173.009 226.7066,-176.3488"/>
<polygon fill="#000000" stroke="#000000" points="224.6487,-173.5176 218.562,-182.1895 228.7281,-179.2061 224.6487,-173.5176"/>
</g>
<!-- [cf&#45;messsage&#45;module] (&#39;sandbox&#39;) -->
<g id="node4" class="node">
<title>[cf-messsage-module] ('sandbox')</title>
<ellipse fill="#d3d3d3" stroke="#000000" cx="618" cy="-198.8" rx="144.0818" ry="18"/>
<text text-anchor="middle" x="618" y="-194.6" font-family="Times,serif" font-size="14.00" fill="#000000">[cf-messsage-module] ('sandbox')</text>
</g>
<!-- window.lslcore -->
<g id="node5" class="node">
<title>window.lslcore</title>
<ellipse fill="#d3d3d3" stroke="#000000" cx="618" cy="-114" rx="70.1048" ry="18"/>
<text text-anchor="middle" x="618" y="-109.8" font-family="Times,serif" font-size="14.00" fill="#000000">window.lslcore</text>
</g>
<!-- [cf&#45;messsage&#45;module] (&#39;sandbox&#39;)&#45;&gt;window.lslcore -->
<g id="edge4" class="edge">
<title>[cf-messsage-module] ('sandbox')-&gt;window.lslcore</title>
<path fill="none" stroke="#000000" d="M623.6784,-180.3997C624.8032,-169.2112 625.0425,-154.6983 624.3963,-142.0954"/>
<polygon fill="#000000" stroke="#000000" points="627.8828,-141.7835 623.6452,-132.0731 620.9024,-142.3067 627.8828,-141.7835"/>
</g>
<!-- [cf&#45;messsage&#45;module] (&#39;sandbox&#39;)&#45;&gt;postMessage -->
<g id="edge8" class="edge">
<title>[cf-messsage-module] ('sandbox')-&gt;postMessage</title>
<path fill="none" stroke="#000000" d="M566.9681,-181.9449C526.7809,-167.6515 471.451,-147.1833 433.1477,-132.4528"/>
<polygon fill="#000000" stroke="#000000" points="434.3853,-129.1789 423.796,-128.8387 431.8619,-135.7083 434.3853,-129.1789"/>
</g>
<!-- window.lslcore&#45;&gt;[cf&#45;messsage&#45;module] (&#39;sandbox&#39;) -->
<g id="edge5" class="edge">
<title>window.lslcore-&gt;[cf-messsage-module] ('sandbox')</title>
<path fill="none" stroke="#000000" d="M612.3548,-132.0731C611.2127,-143.196 610.9561,-157.6946 611.585,-170.3344"/>
<polygon fill="#000000" stroke="#000000" points="608.101,-170.6818 612.3216,-180.3997 615.0823,-170.1709 608.101,-170.6818"/>
</g>
<!-- postMessage&#45;&gt;[app&#45;message&#45;module] (&#39;harbor&#39;) -->
<g id="edge9" class="edge">
<title>postMessage-&gt;[app-message-module] ('harbor')</title>
<path fill="none" stroke="#000000" d="M375.9612,-131.6985C363.3404,-142.7461 344.0834,-156.4146 325,-164.8 307.5022,-172.4887 288.08,-178.5235 268.9402,-183.2316"/>
<polygon fill="#000000" stroke="#000000" points="267.9032,-179.8799 258.9689,-185.5745 269.5043,-186.6943 267.9032,-179.8799"/>
</g>
<!-- postMessage&#45;&gt;[cf&#45;messsage&#45;module] (&#39;sandbox&#39;) -->
<g id="edge7" class="edge">
<title>postMessage-&gt;[cf-messsage-module] ('sandbox')</title>
<path fill="none" stroke="#000000" d="M430.1104,-127.3438C468.681,-140.92 526.2988,-162.1537 567.6035,-177.9508"/>
<polygon fill="#000000" stroke="#000000" points="566.3521,-181.2194 576.9422,-181.5372 568.8617,-174.6847 566.3521,-181.2194"/>
</g>
</g>
</svg>